<svg aria-hidden="true" style="position: absolute; width: 0; height: 0; overflow: hidden;" version="1.1" xmlns="http://www.w3.org/2000/svg" xmlns:xlink="http://www.w3.org/1999/xlink">
<defs>
<symbol id="icon-down-arrow" viewBox="0 0 50 32">
<path fill="none" stroke="#fff" style="stroke: var(--color1, #fff)" stroke-linejoin="round" stroke-linecap="round" stroke-miterlimit="10" stroke-width="7.1111" d="M43.662 6.993l-15.455 15.455c-3.319 3.319-3.319 3.319-6.637 0l-15.455-15.455"></path>
</symbol>
<symbol id="icon-cross" viewBox="0 0 32 32">
<path fill="#fff" style="fill: var(--color1, #fff)" d="M16.011 19.328l-11.611 11.619c-0.434 0.435-0.987 0.652-1.659 0.652s-1.225-0.217-1.659-0.651c-0.435-0.434-0.652-0.987-0.652-1.659s0.217-1.225 0.651-1.66l11.611-11.619-11.619-11.611c-0.435-0.434-0.652-0.987-0.652-1.659s0.217-1.225 0.651-1.659c0.434-0.435 0.987-0.652 1.659-0.652s1.225 0.217 1.66 0.651l11.619 11.611 11.611-11.619c0.434-0.435 0.987-0.652 1.659-0.652s1.225 0.217 1.659 0.651c0.435 0.434 0.652 0.987 0.652 1.659s-0.217 1.225-0.651 1.66l-11.611 11.619 11.619 11.611c0.435 0.434 0.652 0.987 0.652 1.659s-0.217 1.225-0.651 1.66c-0.434 0.435-0.987 0.652-1.659 0.652s-1.225-0.217-1.659-0.651l-11.619-11.611z"></path>
</symbol>
</defs>
</svg>
